
        <svg xmlns="http://www.w3.org/2000/svg" xmlns:xlink="http://www.w3.org/1999/xlink" version="1.1" width="3162.1621621621625" 
        height="506.7931452595295" viewBox="0 0 3162.1621621621625 506.7931452595295">
			
			<g transform="scale(8.108108108108109) translate(10, 10)">
				<defs id="SvgjsDefs2576"></defs><g id="SvgjsG2577" featureKey="rDwwlG-0" transform="matrix(0.0012864251792000325,0,0,0.0012864251792000325,-0.32331620229146496,-4.071081862972804)" fill="#37b5fe"><defs xmlns="http://www.w3.org/2000/svg"></defs><g xmlns="http://www.w3.org/2000/svg"><path d="M533.07 29131.85c-226.8,115.89 -403,-228.94 -176.21,-344.83 2852.36,-1460.73 5327.19,-3849.71 6592.1,-6822.24 99.9,-234.78 456.89,-82.88 356.98,151.91 -1301.05,3057.49 -3838.47,5512.42 -6772.87,7015.17zm32515.94 -23132.53c459.69,0 832.4,372.71 832.4,832.4 0,459.69 -372.72,832.4 -832.4,832.4 -459.69,0 -832.4,-372.71 -832.4,-832.4 0,-459.69 372.71,-832.4 832.4,-832.4zm0 393.7c-242.32,0 -438.7,196.38 -438.7,438.7 0,242.32 196.38,438.7 438.7,438.7 242.32,0 438.7,-196.38 438.7,-438.7 0,-242.33 -196.37,-438.7 -438.7,-438.7zm756.89 6783.11c-288.85,-100.59 -495.52,-357.39 -531.22,-662.06 -25.56,-218.19 40.2,-426.68 167.19,-587.38 252.17,-319.1 701.58,-398.07 1046.68,-183.99 100.08,62.09 186.03,145.8 250.65,245.43 26.76,-5.09 53.65,-9.24 80.61,-12.4 314.17,-36.8 614.09,57.68 845.03,240.18 230.97,182.53 392.3,452.89 429.2,767.81 36.8,314.17 -57.68,614.09 -240.18,845.04 -182.53,230.98 -452.89,392.3 -767.81,429.2 -314.15,36.81 -614.08,-57.67 -845.03,-240.18 -258.44,-204.22 -419.83,-512.22 -435.11,-841.65zm678.09 534.07c151.46,119.69 349.25,181.53 557.45,157.14 207.43,-24.3 385.16,-130.13 504.83,-281.56 119.69,-151.47 181.53,-349.26 157.14,-557.45 -24.31,-207.43 -130.13,-385.17 -281.56,-504.83 -319.26,-252.3 -583.03,-167.93 -905.58,-54.27 -54.66,-153.3 -84.65,-300.27 -233.81,-392.8 -174.54,-108.28 -405.43,-68.2 -533.02,93.25 -64.17,81.21 -97.3,187.57 -84.15,299.8 37.38,319.03 297.48,349.56 554.87,376.34 -34,338.81 -53.91,613.33 263.82,864.39zm-4280.89 950.54c229.84,0 437.95,93.18 588.59,243.81 150.64,150.64 243.81,358.74 243.81,588.59 0,229.84 -93.18,437.94 -243.82,588.58 -150.64,150.64 -358.74,243.81 -588.58,243.81 -229.83,0 -437.94,-93.18 -588.58,-243.81 -150.63,-150.64 -243.81,-358.75 -243.81,-588.58 0,-229.84 93.18,-437.94 243.81,-588.58 150.64,-150.64 358.74,-243.82 588.58,-243.82zm310.22 522.18c-79.38,-79.38 -189.06,-128.48 -310.22,-128.48 -121.16,0 -230.84,49.1 -310.22,128.48 -79.38,79.38 -128.48,189.06 -128.48,310.22 0,121.16 49.1,230.84 128.48,310.22 79.38,79.37 189.06,128.48 310.22,128.48 121.16,0 230.84,-49.1 310.22,-128.48 79.38,-79.38 128.48,-189.06 128.48,-310.22 0,-121.16 -49.1,-230.85 -128.48,-310.22zm-2420.59 3139.24c290.76,0 554.01,117.87 744.57,308.43 190.56,190.56 308.43,453.81 308.43,744.57 0,290.76 -117.87,554.01 -308.43,744.57 -190.56,190.56 -453.81,308.43 -744.57,308.43 -290.76,0 -554.01,-117.87 -744.57,-308.43 -190.56,-190.56 -308.43,-453.81 -308.43,-744.57 0,-290.76 117.87,-554.01 308.43,-744.57 190.56,-190.56 453.81,-308.43 744.57,-308.43zm466.21 586.79c-119.3,-119.3 -284.13,-193.09 -466.21,-193.09 -182.07,0 -346.91,73.79 -466.2,193.09 -119.3,119.3 -193.09,284.13 -193.09,466.2 0,182.07 73.79,346.91 193.09,466.21 119.3,119.3 284.13,193.09 466.2,193.09 182.08,0 346.91,-73.79 466.21,-193.09 119.3,-119.3 193.09,-284.13 193.09,-466.21 0,-182.07 -73.79,-346.91 -193.09,-466.2zm-3248.56 12154.81c-57.33,-30.83 -78.81,-102.3 -47.98,-159.63 30.83,-57.33 102.3,-78.81 159.63,-47.98 1503.96,810.88 3134.42,1400.64 4789.62,1816.26 63.19,15.8 101.61,79.83 85.81,143.03 -15.8,63.19 -79.83,101.61 -143.03,85.81 -1673.47,-420.21 -3323.55,-1017.68 -4844.06,-1837.49zm-5579.58 1954.97c-136.54,-73.43 -24.9,-281.05 111.65,-207.61 1503.94,810.88 3134.43,1400.64 4789.62,1816.26 150.5,37.62 93.31,266.46 -57.21,228.84 -1673.46,-420.2 -3323.56,-1017.68 -4844.06,-1837.48zm-5159.17 -8737c-154.15,15.17 -177.22,-219.2 -23.07,-234.38 662.59,-65.42 1437.77,52.29 1971.52,476.07 121.22,96.37 -25.49,280.93 -146.72,184.55 -485,-385.07 -1200.97,-485.56 -1801.73,-426.24zm223.56 -10540.19c-35.93,54.27 -109.05,69.15 -163.32,33.22 -54.27,-35.93 -69.15,-109.05 -33.22,-163.32 268.6,-405.32 617.14,-826.21 1024.25,-1171.26 342.3,-290.12 726.5,-527.05 1140.54,-657.47 62.17,-19.36 128.28,15.34 147.64,77.51 19.36,62.17 -15.34,128.28 -77.51,147.64 -381.38,120.13 -738.32,340.96 -1058.42,612.26 -388.62,329.38 -722.26,732.55 -979.96,1121.43zm-1125.28 17404.04c-112.27,-106.8 50.13,-277.52 162.4,-170.71 326.99,310.11 668.53,603.27 1022.78,881.78 121.83,95.77 -23.96,281.24 -145.8,185.47 -359.54,-282.68 -707.52,-581.81 -1039.39,-896.55zm1864 1503.47c-127.28,-87.88 6.51,-281.66 133.8,-193.77 1406.31,970.57 2962.39,1735.17 4562.29,2329.39 145.04,54.01 62.92,274.55 -82.13,220.54 -1617.37,-600.7 -3192.32,-1375 -4613.96,-2356.15zm-6944.65 -13481.78c-69.93,245.77 -443.63,139.44 -373.69,-106.34 1943.63,-6800.09 5017.29,-10376.84 7957.54,-11986.9 1349.83,-739.15 2673.26,-1064.91 3849.3,-1097.93 1185.49,-33.29 2223.48,230.85 2991.54,669.74 825.4,471.66 1346.11,1148.48 1419.63,1885.69 10.48,106.55 -67.39,201.43 -173.94,211.91 -106.55,10.48 -201.43,-67.39 -211.91,-173.94 -60.59,-607.52 -510.59,-1177.23 -1226.7,-1586.43 -711.15,-406.37 -1677.96,-650.77 -2787.98,-619.6 -1119.48,31.44 -2382.31,343.19 -3674.6,1050.83 -2861.42,1566.89 -5858.87,5069.44 -7769.18,11752.96zm16553.78 -15422.06c-103.19,28.94 -210.31,-31.25 -239.26,-134.44 -28.94,-103.19 31.25,-210.31 134.44,-239.26 1493.8,-423.85 3140.46,-224.45 4308,859.99 1044.91,970.55 1382.82,2368.91 1059.46,3737.94 -24.33,104.45 -128.73,169.4 -233.18,145.07 -104.45,-24.33 -169.4,-128.73 -145.07,-233.18 291.36,-1233.56 -2.51,-2489.85 -945.54,-3365.76 -1066.46,-990.55 -2577.89,-1156.53 -3938.86,-770.37zm6260.79 4881.25c-98.91,-234.78 258.07,-385.17 356.98,-150.39 398.59,947.45 294.48,1996.44 -368.44,2794.7 -649.24,781.77 -1662.02,1108.48 -2653.34,907.96 -249.77,-49.95 -173.82,-429.72 75.95,-379.77 851.72,172.28 1721.22,-103.37 2279.65,-775.81 570.15,-686.55 651.38,-1583.31 309.19,-2396.7zm-21540.99 14502.44c-89.65,-1284.44 701.15,-2023.98 1805.36,-2477.98 975.84,-401.21 2190.63,-579.78 3194.77,-649.87 1631.27,-113.87 1748.62,-767.02 1944.28,-2295.3 203.63,-1590.49 862.83,-2810.55 1739.01,-3643.17 1677.91,-1594.51 4394.48,-1884.11 6080.87,-109.51 506.05,532.52 1360.37,1084.45 2099.74,679 563.79,-309.17 682.94,-987.65 516.49,-1567.76 -247.06,-861.06 -234.58,-1487.65 517.68,-2071.56 614.59,-477.07 927.46,-1162.29 919.92,-1940.35 -20.02,-2065.27 -2078.11,-3476.13 -3847.45,-3979.14 -1169.2,-332.39 -2619.53,-437.71 -4402.04,-177.7 -106.13,15.1 -204.41,-58.69 -219.51,-164.82 -15.1,-106.13 58.69,-204.41 164.82,-219.51 1840.83,-268.52 3345.19,-157.89 4563.06,188.34 1950.33,554.47 4106.68,2101.17 4128.48,4349.8 8.77,903.86 -357.15,1696.63 -1070.31,2250.25 -617.69,479.45 -582.2,957.02 -380.96,1658.36 217.45,757.83 21.63,1616.81 -703.33,2014.37 -911.54,499.86 -1927.51,-78.31 -2567.63,-751.91 -1537.55,-1617.96 -4009.21,-1324.37 -5532.48,123.18 -816.13,775.56 -1430.82,1917.16 -1622.04,3410.76 -219.6,1715.28 -456.6,2505.17 -2302.78,2634.05 -972.22,67.86 -2144,238.95 -3073.24,621.01 -945.34,388.67 -1642.84,983.41 -1565.34,2093.65 0,281.79 -366.52,324.54 -387.37,25.83zm2746.33 11249.67c198.57,159.65 -44.48,461.95 -243.06,302.3 -4759.44,-3841.54 -5801.34,-10858.38 1318.99,-11799.66 1687.38,-223.06 5021.95,437.98 4610.37,2725.38 -85.82,476.98 -361.7,987.53 -875.26,1511.13 -156.71,159.78 -340.08,317.02 -454.19,509.67 1307.46,1991.03 4244.14,3810.08 7618.59,5227.38 4117.93,1729.57 8873.18,2853.13 12127.12,2963.19 106.97,3.35 190.96,92.79 187.61,199.76 -3.35,106.97 -92.79,190.96 -199.76,187.61 -3298.53,-111.56 -8108.41,-1246.1 -12265.35,-2992.06 -3266.83,-1372.1 -6139.01,-3126.55 -7579.5,-5068.23 64.16,1523.12 -1281.68,1865.27 -2475.46,1186.05 -538.37,-306.31 -958.93,-279.2 -1470.74,64.11 -88.93,59.56 -209.31,35.76 -268.88,-53.17 -59.56,-88.93 -35.76,-209.31 53.17,-268.88 634.02,-425.28 1211.39,-458.49 1877.85,-79.3 927.91,527.94 1972.57,374.16 1894.52,-866.18 -39.22,-623.35 268.53,-863.87 678.55,-1281.87 455.52,-464.42 698.04,-905.12 770.44,-1307.57 353.04,-1962.1 -2782.88,-2457.25 -4178.96,-2272.69 -6787.42,897.26 -5588.44,7511.26 -1126.06,11113.03zm8881.4 -8688.88c-95.77,-121.83 89.7,-267.63 185.47,-145.8 237.06,301.98 496.24,585.8 766.74,858.02 109.24,109.85 -57.78,275.94 -167.02,166.09 -275.88,-277.63 -543.44,-570.36 -785.2,-878.32zm1671.19 1700.7c-116.98,-101.22 37.11,-279.31 154.09,-178.09 1327.79,1146.3 2901,2201.94 4471.59,2983.78 58.35,29.04 82.1,99.9 53.06,158.25 -29.04,58.35 -99.9,82.1 -158.25,53.06 -1586.85,-789.93 -3178.97,-1858.85 -4520.5,-3017zm-1842.78 -12859.65c125.02,-91.63 264.35,98.45 139.33,190.09 -2008.2,1478.04 -2444.54,5000.48 -1434.57,7163.85 27.52,58.86 2.11,128.89 -56.75,156.4 -58.86,27.52 -128.89,2.11 -156.4,-56.75 -1058.59,-2267.54 -588.89,-5909.98 1508.39,-7453.59zm17636.94 18060.06c105.71,17.2 177.46,116.84 160.26,222.55 -17.2,105.71 -116.84,177.46 -222.55,160.26 -3662.67,-603.61 -8212.89,-2635.37 -11695.33,-5322.68 -1726.13,-1332 -3192.86,-2827.19 -4164.04,-4392.65 -1582.7,-2551.19 -1807.49,-5224.42 68.4,-7655.36 155.65,-201.56 462.52,35.41 306.86,236.98 -1775.63,2301.02 -1541.38,4803.78 -45.62,7214.82 945,1523.26 2379.54,2983.8 4071.38,4289.35 3434.06,2649.98 7916.19,4652.7 11520.63,5246.72zm-26290.96 -17604.1c-51.59,93.96 -169.6,128.31 -263.56,76.71 -93.96,-51.59 -128.31,-169.6 -76.71,-263.56 282.59,-513.64 584.7,-991.87 903.25,-1435.43 1550.37,-2158.78 3466.91,-3449.1 5404.5,-3976.42 1946.74,-529.8 3914.14,-289.76 5555.59,613.31 247.28,136.04 488.8,288.48 723.38,456.95 86.83,62.5 106.55,183.57 44.05,270.4 -62.5,86.83 -183.57,106.55 -270.4,44.05 -218.28,-156.76 -446.64,-300.6 -683.89,-431.12 -1553.8,-854.85 -3418.91,-1081.31 -5266.96,-578.37 -1857.2,505.44 -3697.76,1747.17 -5191.83,3827.55 -307.05,427.54 -600.45,892.5 -877.42,1395.93z" style="fill: #37B5FE; fill-rule: nonzero;"></path></g></g><g id="SvgjsG2578" featureKey="nameFeature-0" transform="matrix(1.7033506038201498,0,0,1.7033506038201498,68.438134615233,-1.5827828064236407)" fill="#37b5fe"><path d="M4.38 6.92 c0.02 -0.06 0.06 -0.12 0.14 -0.12 l2.48 0 c0.08 0 0.12 0.06 0.14 0.12 l3.46 12.86 c0.02 0.12 -0.06 0.22 -0.18 0.22 l-2.28 0 c-0.06 0 -0.12 -0.04 -0.14 -0.12 l-0.78 -2.8 l-2.92 0 l-0.76 2.8 c-0.02 0.08 -0.06 0.12 -0.14 0.12 l-2.3 0 c-0.12 0 -0.2 -0.1 -0.18 -0.22 z M4.94 14.6 l1.66 0 l-0.86 -3.02 z M8.02 15.780000000000001 l0.92 3 c0.04 0.12 0.26 0.1 0.2 -0.06 l-3.2 -10.64 c-0.06 -0.26 -0.4 -0.28 -0.46 0 l-3.1 10.64 c-0.06 0.14 0.16 0.2 0.22 0.08 l0.88 -3.02 l4.54 0 z M3.54 15.52 l2.18 -7.36 l2.22 7.36 l-4.4 0 z M18.56 6.800000000000001 c1.36 0 2.38 0.38 3.06 1.12 c0.6 0.66 0.9 1.64 0.9 2.84 l0 5.3 c0 2.42 -1.4 3.94 -3.96 3.94 l-5 0 c-0.1 0 -0.16 -0.08 -0.16 -0.18 l0 -12.84 c0 -0.1 0.06 -0.18 0.16 -0.18 l5 0 z M19.9 15.46 l0 -4.1 c0 -1.26 -0.66 -2.06 -2.06 -2.06 l-1.8 0 l0 8.2 l1.8 0 c1.2 0 2.06 -0.78 2.06 -2.04 z M14.62 8.02 l0 10.76 c0 0.08 0.08 0.1 0.12 0.1 l3.26 0 c2.3 0 3.34 -1.38 3.34 -2.66 l0 -5.12 c0 -2.12 -1.12 -3.2 -3.4 -3.2 l-3.2 0 c-0.04 0 -0.12 0.02 -0.12 0.12 z M21.1 11.1 l0 5.12 c0 1.6 -1.6 2.44 -3.1 2.44 l-3.14 0 l0 -10.5 l3.08 0 c2.1 0 3.16 0.94 3.16 2.94 z M28.52 6.92 c0.02 -0.06 0.06 -0.12 0.14 -0.12 l2.48 0 c0.08 0 0.12 0.06 0.14 0.12 l3.46 12.86 c0.02 0.12 -0.06 0.22 -0.18 0.22 l-2.28 0 c-0.06 0 -0.12 -0.04 -0.14 -0.12 l-0.78 -2.8 l-2.92 0 l-0.76 2.8 c-0.02 0.08 -0.06 0.12 -0.14 0.12 l-2.3 0 c-0.12 0 -0.2 -0.1 -0.18 -0.22 z M29.080000000000002 14.6 l1.66 0 l-0.86 -3.02 z M32.16 15.780000000000001 l0.92 3 c0.04 0.12 0.26 0.1 0.2 -0.06 l-3.2 -10.64 c-0.06 -0.26 -0.4 -0.28 -0.46 0 l-3.1 10.64 c-0.06 0.14 0.16 0.2 0.22 0.08 l0.88 -3.02 l4.54 0 z M27.68 15.52 l2.18 -7.36 l2.22 7.36 l-4.4 0 z M48.58 6.800000000000001 c0.1 0 0.18 0.08 0.18 0.18 l0 12.84 c0 0.1 -0.08 0.18 -0.18 0.18 l-2.18 0 c-0.06 0 -0.16 -0.08 -0.16 -0.18 l0 -7.4 l-2.2 7.46 c-0.04 0.08 -0.08 0.12 -0.16 0.12 l-1.58 0 c-0.06 0 -0.14 -0.04 -0.16 -0.12 l-2.06 -7.6 l0 7.54 c0 0.1 -0.08 0.18 -0.18 0.18 l-2.22 0 c-0.08 0 -0.14 -0.08 -0.14 -0.18 l0 -12.84 c0 -0.1 0.06 -0.18 0.14 -0.18 l2.8 0 c0.08 0 0.16 0.06 0.18 0.12 l2.42 8.1 l2.66 -8.1 c0 -0.06 0.06 -0.12 0.14 -0.12 l2.7 0 z M47.339999999999996 18.78 c0 0.14 0.26 0.18 0.26 0 l0 -10.78 c0 -0.04 -0.06 -0.1 -0.12 -0.1 l-0.94 0 c-0.08 0 -0.1 0.06 -0.14 0.1 l-3.32 9.9 l-3.3 -9.92 c0 -0.06 -0.04 -0.08 -0.1 -0.08 l-0.98 0 c-0.06 0 -0.12 0.06 -0.12 0.12 l0 10.76 c0 0.14 0.26 0.18 0.26 0 l0 -10.62 l0.74 0 l3.38 10.16 c0.08 0.14 0.14 0.1 0.24 0 l3.4 -10.16 l0.74 0 l0 10.62 z M66.36 15.379999999999999 l0 -8.4 c0 -0.1 0.08 -0.18 0.18 -0.18 l2.28 0 c0.1 0 0.18 0.08 0.18 0.18 l0 9.04 c0 2.88 -1.58 4.18 -4.56 4.18 c-2.82 0 -4.58 -1.12 -4.58 -4.18 l0 -9.04 c0 -0.1 0.08 -0.18 0.18 -0.18 l2.3 0 c0.1 0 0.18 0.08 0.18 0.18 l0 8.4 c0 1.74 0.98 2.12 1.8 2.12 l0.24 0 c1.24 0 1.8 -0.84 1.8 -2.12 z M61.1 8.08 l0 7.78 c0 1.8 1.22 3.1 3.12 3.1 l0.5 0 c1.9 0 3.14 -1.36 3.14 -3.1 l0 -7.78 c0 -0.18 -0.24 -0.2 -0.24 0 l0 7.78 c0 1.64 -1.18 2.84 -2.9 2.84 l-0.5 0 c-1.68 0 -2.88 -1.08 -2.88 -2.84 l0 -7.78 c0 -0.18 -0.24 -0.18 -0.24 0 z M78.06 6.98 c0 -0.1 0.08 -0.18 0.18 -0.18 l2.3 0 c0.1 0 0.18 0.08 0.18 0.18 l0 12.84 c0 0.1 -0.08 0.18 -0.18 0.18 l-2.22 0 c-0.08 0 -0.16 -0.04 -0.18 -0.1 l-2.92 -6.58 l0 6.5 c0 0.1 -0.08 0.18 -0.18 0.18 l-2.28 0 c-0.1 0 -0.16 -0.08 -0.16 -0.18 l0 -12.84 c0 -0.1 0.06 -0.18 0.16 -0.18 l2.36 0 c0.08 0 0.12 0.06 0.14 0.1 l2.8 6.46 l0 -6.38 z M79.5 18.8 l0 -10.8 c0 -0.14 -0.26 -0.18 -0.26 0 l0 10.28 l-5.22 -10.32 c-0.06 -0.08 -0.22 -0.08 -0.22 0.04 l0 10.78 c0 0.18 0.24 0.18 0.24 0 l0 -10.26 l5.2 10.3 c0.08 0.14 0.26 0.1 0.26 -0.02 z M89.64 6.800000000000001 c1.36 0 2.38 0.38 3.06 1.12 c0.6 0.66 0.9 1.64 0.9 2.84 l0 5.3 c0 2.42 -1.4 3.94 -3.96 3.94 l-5 0 c-0.1 0 -0.16 -0.08 -0.16 -0.18 l0 -12.84 c0 -0.1 0.06 -0.18 0.16 -0.18 l5 0 z M90.97999999999999 15.46 l0 -4.1 c0 -1.26 -0.66 -2.06 -2.06 -2.06 l-1.8 0 l0 8.2 l1.8 0 c1.2 0 2.06 -0.78 2.06 -2.04 z M85.69999999999999 8.02 l0 10.76 c0 0.08 0.08 0.1 0.12 0.1 l3.26 0 c2.3 0 3.34 -1.38 3.34 -2.66 l0 -5.12 c0 -2.12 -1.12 -3.2 -3.4 -3.2 l-3.2 0 c-0.04 0 -0.12 0.02 -0.12 0.12 z M92.17999999999999 11.1 l0 5.12 c0 1.6 -1.6 2.44 -3.1 2.44 l-3.14 0 l0 -10.5 l3.08 0 c2.1 0 3.16 0.94 3.16 2.94 z M97.26 20 c-0.1 0 -0.16 -0.08 -0.16 -0.18 l0 -12.84 c0 -0.1 0.06 -0.18 0.16 -0.18 l6.8 0 c0.1 0 0.18 0.08 0.18 0.18 l0 2.14 c0 0.1 -0.08 0.18 -0.18 0.18 l-4.32 0 l0 2.72 l3.36 0 c0.1 0 0.16 0.08 0.16 0.18 l0 2.18 c0 0.1 -0.06 0.18 -0.16 0.18 l-3.36 0 l0 2.94 l4.32 0 c0.1 0 0.18 0.08 0.18 0.18 l0 2.14 c0 0.1 -0.08 0.18 -0.18 0.18 l-6.8 0 z M98.26 8.06 l0 10.64 c0 0.12 0.08 0.16 0.16 0.16 l4.6 0 c0.18 0 0.14 -0.24 0 -0.24 l-4.5 0 l0 -5.22 l3.68 0 c0.12 0 0.12 -0.28 0 -0.28 l-3.68 0 l0 -4.96 l4.5 0 c0.14 0 0.18 -0.26 0 -0.26 l-4.6 0 c-0.08 0 -0.16 0.06 -0.16 0.16 z M115.11999999999999 14.780000000000001 c-0.28 0.58 -0.68 1.02 -1.24 1.28 l1.68 3.7 c0.06 0.12 -0.02 0.24 -0.14 0.24 l-2.46 0 c-0.08 0 -0.12 -0.04 -0.14 -0.1 l-1.56 -3.4 l-1.02 0 l0 3.32 c0 0.1 -0.08 0.18 -0.18 0.18 l-2.3 0 c-0.08 0 -0.14 -0.08 -0.14 -0.18 l0 -12.84 c0 -0.1 0.06 -0.18 0.14 -0.18 l4.16 0 c2.22 0 3.56 1.26 3.56 3.6 l0 2.52 c0 0.7 -0.12 1.36 -0.36 1.86 z M112.86 12.3 l0 -1.3 c0 -1.4 -0.52 -1.54 -2.04 -1.54 l-0.58 0 l0 4.42 l0.58 0 c1.26 0 2 -0.02 2.04 -1.58 z M109.08 18.78 l0 -3.42 l2.88 0 l1.68 3.46 c0.04 0.1 0.28 0.06 0.22 -0.12 l-1.68 -3.4 c1.56 -0.22 2.1 -1.04 2.1 -2.52 l0 -2.5 c0 -2.2 -2 -2.38 -2.62 -2.38 l-2.7 0 c-0.04 0 -0.12 0.06 -0.12 0.12 l0 10.76 c0 0.14 0.24 0.14 0.24 0 z M114.03999999999999 10.28 l0 2.5 c0 2.04 -1.3 2.32 -2.56 2.32 l-2.4 0 l0 -6.94 l2.58 0 c2.16 0 2.38 1.46 2.38 2.12 z M133.22 6.800000000000001 c0.12 0 0.2 0.1 0.16 0.22 l-3.44 12.86 c-0.02 0.08 -0.1 0.12 -0.18 0.12 l-2.2 0 c-0.08 0 -0.14 -0.04 -0.18 -0.12 l-1.36 -5.06 l-1.84 5.08 c-0.02 0.06 -0.06 0.1 -0.14 0.1 l-2.12 0 c-0.08 0 -0.14 -0.04 -0.16 -0.12 l-3.42 -12.88 c-0.02 -0.1 0.04 -0.2 0.18 -0.2 l2.3 0 c0.06 0 0.12 0.06 0.14 0.12 l2.22 8.48 l1.66 -5.02 l-0.92 -3.36 c-0.04 -0.12 0.06 -0.22 0.16 -0.22 l2.48 0 c0.08 0 0.12 0.02 0.16 0.12 l1.84 8.16 l2.2 -8.16 c0.02 -0.06 0.08 -0.12 0.16 -0.12 l2.3 0 z M126.18 10.58 l-3.02 8.04 l-3.24 -10.66 c-0.04 -0.14 -0.28 -0.08 -0.24 0.06 l3.24 10.68 c0.06 0.28 0.4 0.26 0.5 0 l2.86 -7.72 l2.1 7.7 c0.08 0.3 0.44 0.3 0.5 0.02 l3.18 -10.68 c0.06 -0.14 -0.2 -0.22 -0.24 -0.06 l-3.16 10.66 l-2.92 -10.66 c-0.02 -0.14 -0.28 -0.1 -0.22 0.06 z M139 6.92 c0.02 -0.06 0.06 -0.12 0.14 -0.12 l2.48 0 c0.08 0 0.12 0.06 0.14 0.12 l3.46 12.86 c0.02 0.12 -0.06 0.22 -0.18 0.22 l-2.28 0 c-0.06 0 -0.12 -0.04 -0.14 -0.12 l-0.78 -2.8 l-2.92 0 l-0.76 2.8 c-0.02 0.08 -0.06 0.12 -0.14 0.12 l-2.3 0 c-0.12 0 -0.2 -0.1 -0.18 -0.22 z M139.56 14.6 l1.66 0 l-0.86 -3.02 z M142.64000000000001 15.780000000000001 l0.92 3 c0.04 0.12 0.26 0.1 0.2 -0.06 l-3.2 -10.64 c-0.06 -0.26 -0.4 -0.28 -0.46 0 l-3.1 10.64 c-0.06 0.14 0.16 0.2 0.22 0.08 l0.88 -3.02 l4.54 0 z M138.16 15.52 l2.18 -7.36 l2.22 7.36 l-4.4 0 z M150.08 9.3 l-2.84 0 c-0.1 0 -0.18 -0.08 -0.18 -0.18 l0 -2.14 c0 -0.1 0.08 -0.18 0.18 -0.18 l8.34 0 c0.1 0 0.18 0.08 0.18 0.18 l0 2.14 c0 0.1 -0.08 0.18 -0.18 0.18 l-2.84 0 l0 10.52 c0 0.1 -0.08 0.18 -0.18 0.18 l-2.3 0 c-0.1 0 -0.18 -0.08 -0.18 -0.18 l0 -10.52 z M154.36 7.9 l-6.04 0 c-0.14 0 -0.14 0.26 0 0.26 l2.96 0 l0 10.6 c0 0.14 0.26 0.14 0.26 0 l0 -10.6 l2.82 0 c0.2 0 0.18 -0.26 0 -0.26 z M158.72 20 c-0.1 0 -0.16 -0.08 -0.16 -0.18 l0 -12.84 c0 -0.1 0.06 -0.18 0.16 -0.18 l6.8 0 c0.1 0 0.18 0.08 0.18 0.18 l0 2.14 c0 0.1 -0.08 0.18 -0.18 0.18 l-4.32 0 l0 2.72 l3.36 0 c0.1 0 0.16 0.08 0.16 0.18 l0 2.18 c0 0.1 -0.06 0.18 -0.16 0.18 l-3.36 0 l0 2.94 l4.32 0 c0.1 0 0.18 0.08 0.18 0.18 l0 2.14 c0 0.1 -0.08 0.18 -0.18 0.18 l-6.8 0 z M159.72 8.06 l0 10.64 c0 0.12 0.08 0.16 0.16 0.16 l4.6 0 c0.18 0 0.14 -0.24 0 -0.24 l-4.5 0 l0 -5.22 l3.68 0 c0.12 0 0.12 -0.28 0 -0.28 l-3.68 0 l0 -4.96 l4.5 0 c0.14 0 0.18 -0.26 0 -0.26 l-4.6 0 c-0.08 0 -0.16 0.06 -0.16 0.16 z M176.58 14.780000000000001 c-0.28 0.58 -0.68 1.02 -1.24 1.28 l1.68 3.7 c0.06 0.12 -0.02 0.24 -0.14 0.24 l-2.46 0 c-0.08 0 -0.12 -0.04 -0.14 -0.1 l-1.56 -3.4 l-1.02 0 l0 3.32 c0 0.1 -0.08 0.18 -0.18 0.18 l-2.3 0 c-0.08 0 -0.14 -0.08 -0.14 -0.18 l0 -12.84 c0 -0.1 0.06 -0.18 0.14 -0.18 l4.16 0 c2.22 0 3.56 1.26 3.56 3.6 l0 2.52 c0 0.7 -0.12 1.36 -0.36 1.86 z M174.32000000000002 12.3 l0 -1.3 c0 -1.4 -0.52 -1.54 -2.04 -1.54 l-0.58 0 l0 4.42 l0.58 0 c1.26 0 2 -0.02 2.04 -1.58 z M170.54000000000002 18.78 l0 -3.42 l2.88 0 l1.68 3.46 c0.04 0.1 0.28 0.06 0.22 -0.12 l-1.68 -3.4 c1.56 -0.22 2.1 -1.04 2.1 -2.52 l0 -2.5 c0 -2.2 -2 -2.38 -2.62 -2.38 l-2.7 0 c-0.04 0 -0.12 0.06 -0.12 0.12 l0 10.76 c0 0.14 0.24 0.14 0.24 0 z M175.50000000000003 10.28 l0 2.5 c0 2.04 -1.3 2.32 -2.56 2.32 l-2.4 0 l0 -6.94 l2.58 0 c2.16 0 2.38 1.46 2.38 2.12 z"></path></g>
			</g>
		</svg>
	